# Blender 3.3.1
# www.blender.org
o Cube.009
v 93.420349 -1.600000 104.143303
v 93.420349 1.600000 104.143303
v 93.420349 -1.600000 83.330124
v 93.420349 1.600000 83.330124
v 106.220352 -1.600000 104.143303
v 106.220352 1.600000 104.143303
v 112.988602 -1.600000 85.861725
v 112.988602 1.600000 85.861725
v 73.577042 -1.600000 125.771164
v 73.577042 1.600000 125.771164
v 67.292831 -1.600000 106.601746
v 67.292831 1.600000 106.601746
v 89.003952 -1.600000 117.811348
v 89.003952 1.600000 117.811348
v 78.252922 -1.600000 99.989914
v 78.252922 1.600000 99.989914
v 68.207520 -1.600000 80.640015
v 68.207520 1.600000 80.640015
v 81.792679 -1.600000 64.871948
v 81.792679 1.600000 64.871948
v 81.932014 -1.600000 86.429604
v 81.932014 1.600000 86.429604
v 91.489960 -1.600000 73.226761
v 91.489960 1.600000 73.226761
v 108.548370 -1.600000 119.374168
v 108.548370 1.600000 119.374168
v 116.508636 -1.600000 100.143402
v 116.508636 1.600000 100.143402
v 126.343773 -1.600000 124.269691
v 126.343773 1.600000 124.269691
v 128.335464 -1.600000 105.038925
v 128.335464 1.600000 105.038925
vn -1.0000 -0.0000 -0.0000
vn 0.1283 -0.0000 -0.9917
vn 0.9378 -0.0000 0.3472
vn -0.0000 -0.0000 1.0000
vn -0.0000 -1.0000 -0.0000
vn -0.0000 1.0000 -0.0000
vn -0.9502 -0.0000 0.3115
vn -0.5165 -0.0000 -0.8563
vn 0.8563 -0.0000 -0.5165
vn 0.4585 -0.0000 0.8887
vn -0.7576 -0.0000 -0.6527
vn 0.6527 -0.0000 -0.7576
vn 0.8100 -0.0000 0.5864
vn -0.3887 -0.0000 0.9214
vn -0.9240 -0.0000 -0.3825
vn 0.3825 -0.0000 -0.9240
vn 0.9947 -0.0000 0.1030
vn -0.2652 -0.0000 0.9642
vt 0.812500 0.550781
vt 0.816406 0.550781
vt 0.832031 0.585938
vt 0.812500 0.554688
vt 0.816406 0.554688
vt 0.832031 0.585938
vt 0.843750 0.550781
vt 0.816406 0.550781
vt 0.832031 0.617188
vt 0.843750 0.554688
vt 0.816406 0.554688
vt 0.832031 0.617188
vt 0.812500 0.550781
vt 0.835938 0.550781
vt 0.851562 0.585938
vt 0.812500 0.554688
vt 0.835938 0.554688
vt 0.851562 0.585938
vt 0.847656 0.550781
vt 0.839844 0.550781
vt 0.863281 0.613281
vt 0.847656 0.554688
vt 0.839844 0.554688
vt 0.863281 0.613281
vt 0.777344 0.550781
vt 0.785156 0.550781
vt 0.800781 0.550781
vt 0.777344 0.554688
vt 0.785156 0.554688
vt 0.800781 0.550781
vt 0.808594 0.550781
vt 0.777344 0.550781
vt 0.792969 0.582031
vt 0.808594 0.554688
vt 0.777344 0.554688
vt 0.792969 0.582031
vt 0.789062 0.550781
vt 0.812500 0.550781
vt 0.828125 0.562500
vt 0.789062 0.554688
vt 0.812500 0.554688
vt 0.828125 0.562500
vt 0.792969 0.550781
vt 0.816406 0.550781
vt 0.808594 0.589844
vt 0.792969 0.554688
vt 0.816406 0.554688
vt 0.808594 0.589844
vt 0.847656 0.550781
vt 0.777344 0.550781
vt 0.792969 0.621094
vt 0.847656 0.554688
vt 0.777344 0.554688
vt 0.792969 0.621094
vt 0.875000 0.550781
vt 0.800781 0.550781
vt 0.816406 0.644531
vt 0.875000 0.554688
vt 0.800781 0.554688
vt 0.816406 0.644531
vt 0.839844 0.550781
vt 0.800781 0.550781
vt 0.816406 0.613281
vt 0.839844 0.554688
vt 0.800781 0.554688
vt 0.816406 0.613281
vt 0.816406 0.550781
vt 0.859375 0.550781
vt 0.832031 0.632812
vt 0.816406 0.554688
vt 0.859375 0.554688
vt 0.832031 0.632812
vt 0.789062 0.550781
vt 0.839844 0.550781
vt 0.855469 0.558594
vt 0.789062 0.554688
vt 0.839844 0.554688
vt 0.855469 0.558594
vt 0.816406 0.550781
vt 0.855469 0.550781
vt 0.871094 0.589844
vt 0.816406 0.554688
vt 0.855469 0.554688
vt 0.871094 0.589844
vt 0.781250 0.550781
vt 0.871094 0.550781
vt 0.886719 0.550781
vt 0.781250 0.554688
vt 0.871094 0.554688
vt 0.886719 0.550781
vt 0.871094 0.550781
vt 0.808594 0.550781
vt 0.886719 0.582031
vt 0.871094 0.554688
vt 0.808594 0.554688
vt 0.886719 0.582031
s 0
f 1/1/1 2/4/1 4/10/1 3/7/1
f 3/8/2 4/11/2 8/22/2 7/19/2
f 7/20/3 8/23/3 6/16/3 5/13/3
f 5/14/4 6/17/4 2/5/4 1/2/4
f 3/9/5 7/21/5 5/15/5 1/3/5
f 8/24/6 4/12/6 2/6/6 6/18/6
f 9/25/7 10/28/7 12/34/7 11/31/7
f 11/32/8 12/35/8 16/46/8 15/43/8
f 15/44/9 16/47/9 14/40/9 13/37/9
f 13/38/10 14/41/10 10/29/10 9/26/10
f 11/33/5 15/45/5 13/39/5 9/27/5
f 16/48/6 12/36/6 10/30/6 14/42/6
f 17/49/11 18/52/11 20/58/11 19/55/11
f 19/56/12 20/59/12 24/70/12 23/67/12
f 23/68/13 24/71/13 22/64/13 21/61/13
f 21/62/14 22/65/14 18/53/14 17/50/14
f 19/57/5 23/69/5 21/63/5 17/51/5
f 24/72/6 20/60/6 18/54/6 22/66/6
f 25/73/15 26/76/15 28/82/15 27/79/15
f 27/80/16 28/83/16 32/94/16 31/91/16
f 31/92/17 32/95/17 30/88/17 29/85/17
f 29/86/18 30/89/18 26/77/18 25/74/18
f 27/81/5 31/93/5 29/87/5 25/75/5
f 32/96/6 28/84/6 26/78/6 30/90/6
