# Blender v2.93.1 OBJ File: 'models.blend'
# www.blender.org
mtllib coin.mtl
o Cube
v -0.101250 -0.500000 0.500000
v -0.101250 0.500000 0.500000
v -0.101250 -0.500000 -0.500000
v -0.101250 0.500000 -0.500000
v 0.101250 -0.500000 0.500000
v 0.101250 0.500000 0.500000
v 0.101250 -0.500000 -0.500000
v 0.101250 0.500000 -0.500000
v -0.101250 -0.672704 0.000000
v -0.101250 0.658522 0.000000
v 0.101250 -0.672704 0.000000
v 0.101250 0.658522 0.000000
v -0.101250 0.000000 0.729375
v -0.101250 0.000000 -0.673719
v 0.101250 0.000000 -0.673719
v 0.101250 0.000000 0.729375
v 0.101250 0.000000 0.000000
v -0.101250 0.000000 0.000000
vt 0.500000 0.500000
vt 0.500000 1.000000
vt 0.000000 1.000000
vt 0.000000 0.500000
vt 0.060210 0.257199
vt 0.060210 0.257199
vt 0.060210 0.257199
vt 0.060210 0.257199
vt 0.500000 0.500000
vt 0.500000 1.000000
vt 0.000000 1.000000
vt 0.000000 0.500000
vt 0.060210 0.257199
vt 0.060210 0.257199
vt 0.060210 0.257199
vt 0.060210 0.257199
vt 0.060210 0.257199
vt 0.060210 0.257199
vt 0.060210 0.257199
vt 0.060210 0.257199
vt 0.060210 0.257199
vt 0.060210 0.257199
vt 0.060210 0.257199
vt 0.060210 0.257199
vt 1.000000 0.500000
vt 1.000000 1.000000
vt 1.000000 0.500000
vt 1.000000 1.000000
vt 1.000000 0.000000
vt 0.500000 0.000000
vt 1.000000 0.000000
vt 0.500000 0.000000
vt 0.000000 0.000000
vt 0.000000 0.000000
vn -1.0000 0.0000 0.0000
vn -0.6450 0.7642 0.0000
vn -0.6188 0.5630 -0.5478
vn -0.6402 0.0000 -0.7682
vn 0.6188 0.5630 -0.5478
vn 0.6402 0.0000 -0.7682
vn 1.0000 0.0000 0.0000
vn 0.6450 0.7642 0.0000
vn 0.6263 0.5841 0.5163
vn 0.6242 0.0000 0.7812
vn -0.6263 0.5841 0.5163
vn -0.6242 0.0000 0.7812
vn -0.6405 -0.7680 0.0000
vn 0.6405 -0.7680 0.0000
vn 0.6284 -0.5762 0.5226
vn -0.6284 -0.5762 0.5226
vn -0.6207 -0.5549 -0.5538
vn 0.6207 -0.5549 -0.5538
usemtl Coin
s 1
f 18/1/1 10/2/2 4/3/3 14/4/4
f 14/5/4 4/6/3 8/7/5 15/8/6
f 17/9/7 12/10/8 6/11/9 16/12/10
f 16/13/10 6/14/9 2/15/11 13/16/12
f 9/17/13 11/18/14 5/19/15 1/20/16
f 12/21/8 10/22/2 2/15/11 6/14/9
f 8/7/5 4/6/3 10/22/2 12/21/8
f 3/23/17 7/24/18 11/18/14 9/17/13
f 15/25/6 8/26/5 12/10/8 17/9/7
f 13/27/12 2/28/11 10/2/2 18/1/1
f 1/29/16 13/27/12 18/1/1 9/30/13
f 7/31/18 15/25/6 17/9/7 11/32/14
f 5/19/15 16/13/10 13/16/12 1/20/16
f 11/32/14 17/9/7 16/12/10 5/33/15
f 3/23/17 14/5/4 15/8/6 7/24/18
f 9/30/13 18/1/1 14/4/4 3/34/17
