# Blender 3.3.1
# www.blender.org
o Cube.004
v -448.000000 32.000000 320.000000
v -448.000000 160.000000 320.000000
v -576.000000 32.000000 320.000000
v -576.000000 160.000000 320.000000
v -448.000000 32.000000 192.000000
v -448.000000 160.000000 192.000000
v -576.000000 32.000000 192.000000
v -576.000000 160.000000 192.000000
v -576.000000 32.000000 256.000000
v -576.000000 160.000000 256.000000
v -448.000000 32.000000 256.000000
v -448.000000 160.000000 256.000000
v -512.000000 32.000000 320.000000
v -512.000000 160.000000 320.000000
v -512.000000 32.000000 192.000000
v -512.000000 160.000000 192.000000
v -512.000000 160.000000 256.000000
v -512.000000 32.000000 256.000000
vn 1.0000 -0.0000 -0.0000
vn -0.0000 -1.0000 -0.0000
vn -1.0000 -0.0000 -0.0000
vn -0.0000 1.0000 -0.0000
vt 0.250000 0.500000
vt 0.500000 0.750000
vt 0.250000 1.000000
vt 0.750000 0.750000
vt 0.000000 0.500000
vt 0.500000 0.500000
vt 0.000000 1.000000
vt 0.750000 0.500000
vt 0.750000 0.750000
vt 0.000000 0.500000
vt 0.500000 0.750000
vt 0.000000 1.000000
vt 0.250000 0.500000
vt 0.750000 0.500000
vt 0.250000 1.000000
vt 0.500000 0.500000
vt 0.000000 0.500000
vt 0.250000 0.500000
vt 0.750000 0.500000
vt 0.500000 0.500000
vt 0.000000 1.000000
vt 0.250000 1.000000
vt 0.500000 0.500000
vt 0.750000 0.500000
vt 0.000000 0.500000
vt 0.500000 0.750000
vt 0.750000 0.750000
vt 0.250000 0.500000
vt 0.750000 0.750000
vt 0.000000 1.000000
vt 0.500000 0.750000
vt 0.250000 1.000000
vt 0.500000 0.500000
vt 0.500000 0.750000
vt 0.750000 0.500000
vt 0.750000 0.750000
vt 0.750000 0.500000
vt 0.750000 0.750000
vt 0.500000 0.500000
vt 0.500000 0.750000
vt 0.750000 0.500000
vt 0.500000 0.500000
vt 0.500000 0.750000
vt 0.750000 0.750000
vt 0.500000 0.500000
vt 0.750000 0.500000
vt 0.750000 0.750000
vt 0.500000 0.750000
s 0
f 9/17/1 7/13/1 8/15/1 10/21/1
f 16/39/2 6/11/2 12/29/2 17/41/2
f 11/25/3 1/1/3 2/3/3 12/30/3
f 18/45/4 11/26/4 5/9/4 15/37/4
f 17/42/2 12/31/2 2/4/2 14/35/2
f 13/33/4 1/2/4 11/27/4 18/46/4
f 5/10/3 11/28/3 12/32/3 6/12/3
f 3/5/1 9/18/1 10/22/1 4/7/1
f 3/6/4 13/34/4 18/47/4 9/19/4
f 10/23/2 17/43/2 14/36/2 4/8/2
f 9/20/4 18/48/4 15/38/4 7/14/4
f 8/16/2 16/40/2 17/44/2 10/24/2
