# Blender 3.3.1
# www.blender.org
o Cube.006
v -64.000000 0.000000 -64.000000
v -64.000000 128.000000 -64.000000
v -64.000000 0.000000 -128.000000
v -64.000000 128.000000 -128.000000
v 0.000000 0.000000 -64.000000
v 0.000000 128.000000 -64.000000
v 0.000000 0.000000 -128.000000
v 0.000000 128.000000 -128.000000
v -64.000000 64.000000 -64.000000
v -64.000000 64.000000 -128.000000
v 0.000000 64.000000 -128.000000
v 0.000000 64.000000 -64.000000
vn -1.0000 -0.0000 -0.0000
vn -0.0000 -0.0000 -1.0000
vn 1.0000 -0.0000 -0.0000
vn -0.0000 -0.0000 1.0000
vn -0.0000 -1.0000 -0.0000
vn -0.0000 1.0000 -0.0000
vt 0.500000 0.750000
vt 0.250000 1.000000
vt 0.000000 1.000000
vt 0.000000 0.500000
vt 0.250000 0.500000
vt 0.750000 0.750000
vt 0.500000 0.500000
vt 0.000000 1.000000
vt 0.250000 1.000000
vt 0.250000 0.500000
vt 0.000000 0.500000
vt 0.750000 0.500000
vt 0.750000 0.750000
vt 0.000000 1.000000
vt 0.250000 1.000000
vt 0.250000 0.500000
vt 0.000000 0.500000
vt 0.500000 0.750000
vt 0.750000 0.500000
vt 0.000000 1.000000
vt 0.250000 1.000000
vt 0.250000 0.500000
vt 0.000000 0.500000
vt 0.500000 0.500000
vt 0.250000 0.750000
vt 0.000000 0.750000
vt 0.000000 0.750000
vt 0.250000 0.750000
vt 0.000000 0.750000
vt 0.250000 0.750000
vt 0.000000 0.750000
vt 0.250000 0.750000
s 0
f 9/26/1 2/4/1 4/10/1 10/28/1
f 10/27/2 4/11/2 8/22/2 11/30/2
f 11/29/3 8/23/3 6/16/3 12/32/3
f 12/31/4 6/17/4 2/5/4 9/25/4
f 3/7/5 7/19/5 5/13/5 1/1/5
f 8/24/6 4/12/6 2/6/6 6/18/6
f 5/14/4 12/31/4 9/25/4 1/2/4
f 7/20/3 11/29/3 12/32/3 5/15/3
f 3/8/2 10/27/2 11/30/2 7/21/2
f 1/3/1 9/26/1 10/28/1 3/9/1
