# Blender 3.3.1
# www.blender.org
o Cube.003
v 192.000000 128.000000 -192.000000
v 192.000000 0.000000 -192.000000
v 192.000000 128.000000 192.000000
v 192.000000 0.000000 192.000000
v -192.000000 128.000000 -192.000000
v -192.000000 0.000000 -192.000000
v -192.000000 128.000000 192.000000
v -192.000000 0.000000 192.000000
v -192.000000 0.000000 -127.999992
v -192.000000 0.000000 -63.999992
v -192.000000 0.000000 0.000006
v -192.000000 0.000000 64.000008
v -192.000000 0.000000 128.000000
v 127.999992 0.000000 -192.000000
v 63.999992 0.000000 -192.000000
v -0.000006 0.000000 -192.000000
v -64.000008 0.000000 -192.000000
v -128.000000 0.000000 -192.000000
v 127.999992 128.000000 192.000000
v 63.999992 128.000000 192.000000
v -0.000006 128.000000 192.000000
v -64.000008 128.000000 192.000000
v -128.000000 128.000000 192.000000
v 192.000000 128.000000 -127.999992
v 192.000000 128.000000 -63.999992
v 192.000000 128.000000 0.000006
v 192.000000 128.000000 64.000008
v 192.000000 128.000000 128.000000
v -127.999992 0.000000 192.000000
v -63.999992 0.000000 192.000000
v 0.000006 0.000000 192.000000
v 64.000008 0.000000 192.000000
v 128.000000 0.000000 192.000000
v -192.000000 128.000000 127.999992
v -192.000000 128.000000 63.999992
v -192.000000 128.000000 -0.000006
v -192.000000 128.000000 -64.000008
v -192.000000 128.000000 -128.000000
v -127.999992 128.000000 -192.000000
v -63.999992 128.000000 -192.000000
v 0.000006 128.000000 -192.000000
v 64.000008 128.000000 -192.000000
v 128.000000 128.000000 -192.000000
v 192.000000 0.000000 127.999992
v 192.000000 0.000000 63.999992
v 192.000000 0.000000 -0.000006
v 192.000000 0.000000 -64.000008
v 192.000000 0.000000 -128.000000
v -127.999992 0.000000 -127.999992
v -63.999992 0.000000 -127.999992
v 0.000006 0.000000 -127.999992
v 64.000008 0.000000 -127.999992
v 128.000000 0.000000 -127.999992
v -127.999992 0.000000 -63.999996
v -63.999992 0.000000 -63.999996
v 0.000006 0.000000 -63.999996
v 64.000008 0.000000 -64.000000
v 128.000000 0.000000 -64.000008
v -127.999992 0.000000 0.000004
v -63.999992 0.000000 0.000002
v 0.000006 0.000000 -0.000000
v 64.000008 0.000000 -0.000002
v 128.000000 0.000000 -0.000004
v -127.999992 0.000000 64.000008
v -63.999992 0.000000 64.000000
v 0.000006 0.000000 63.999996
v 64.000008 0.000000 63.999996
v 128.000000 0.000000 63.999996
v -127.999992 0.000000 128.000000
v -63.999992 0.000000 128.000000
v 0.000006 0.000000 128.000000
v 64.000008 0.000000 128.000000
v 128.000000 0.000000 127.999992
v 127.999992 128.000000 -127.999992
v 63.999992 128.000000 -127.999992
v -0.000006 128.000000 -127.999992
v -64.000008 128.000000 -127.999992
v -128.000000 128.000000 -127.999992
v 127.999992 128.000000 -63.999996
v 63.999992 128.000000 -63.999996
v -0.000006 128.000000 -63.999996
v -64.000008 128.000000 -64.000000
v -128.000000 128.000000 -64.000008
v 127.999992 128.000000 0.000004
v 63.999992 128.000000 0.000002
v -0.000006 128.000000 -0.000000
v -64.000008 128.000000 -0.000002
v -128.000000 128.000000 -0.000004
v 127.999992 128.000000 64.000008
v 63.999992 128.000000 64.000000
v -0.000006 128.000000 63.999996
v -64.000008 128.000000 63.999996
v -128.000000 128.000000 63.999996
v 127.999992 128.000000 128.000000
v 63.999992 128.000000 128.000000
v -0.000006 128.000000 128.000000
v -64.000008 128.000000 128.000000
v -128.000000 128.000000 127.999992
v 192.000000 64.000000 -192.000000
v -192.000000 64.000000 192.000000
v 192.000000 64.000000 192.000000
v -192.000000 64.000000 -192.000000
v -127.999992 64.000000 -192.000000
v -63.999996 64.000000 -192.000000
v 0.000000 64.000000 -192.000000
v 63.999996 64.000000 -192.000000
v 127.999992 64.000000 -192.000000
v 192.000000 64.000000 -127.999992
v 192.000000 64.000000 -63.999996
v 192.000000 64.000000 0.000000
v 192.000000 64.000000 63.999996
v 192.000000 64.000000 127.999992
v -192.000000 64.000000 127.999992
v -192.000000 64.000000 63.999996
v -192.000000 64.000000 -63.999996
v -192.000000 64.000000 -127.999992
v 127.999992 64.000000 192.000000
v 63.999996 64.000000 192.000000
v 0.000000 64.000000 192.000000
v -63.999996 64.000000 192.000000
v -127.999992 64.000000 192.000000
vn -0.0000 -1.0000 -0.0000
vn -0.0000 -0.0000 -1.0000
vn 1.0000 -0.0000 -0.0000
vn -0.0000 1.0000 -0.0000
vn -1.0000 -0.0000 -0.0000
vn -0.0000 -0.0000 1.0000
vt 0.250000 1.000000
vt 0.000000 1.000000
vt 0.500000 0.500000
vt 0.500000 0.750000
vt 0.000000 0.500000
vt 0.250000 0.500000
vt 0.250000 1.000000
vt 0.000000 1.000000
vt 0.750000 0.500000
vt 0.750000 0.750000
vt 0.000000 0.500000
vt 0.250000 0.500000
vt 0.250000 1.000000
vt 0.000000 1.000000
vt 0.500000 0.750000
vt 0.500000 0.500000
vt 0.000000 0.500000
vt 0.250000 0.500000
vt 0.750000 0.750000
vt 0.250000 1.000000
vt 0.000000 1.000000
vt 0.750000 0.500000
vt 0.000000 0.500000
vt 0.250000 0.500000
vt 0.750000 0.500000
vt 0.500000 0.500000
vt 0.250000 0.500000
vt 0.000000 0.500000
vt 0.750000 0.500000
vt 0.500000 0.500000
vt 0.000000 0.500000
vt 0.750000 0.500000
vt 0.500000 0.500000
vt 0.750000 0.500000
vt 0.500000 0.500000
vt 0.250000 0.500000
vt 0.750000 0.500000
vt 0.500000 0.500000
vt 0.000000 0.500000
vt 0.250000 0.500000
vt 0.500000 0.500000
vt 0.500000 0.750000
vt 0.250000 0.500000
vt 0.000000 0.500000
vt 0.500000 0.750000
vt 0.500000 0.500000
vt 0.000000 0.500000
vt 0.250000 0.500000
vt 0.500000 0.750000
vt 0.500000 0.500000
vt 0.000000 0.500000
vt 0.250000 0.500000
vt 0.500000 0.750000
vt 0.500000 0.500000
vt 0.000000 0.500000
vt 0.250000 0.500000
vt 0.500000 0.750000
vt 0.500000 0.500000
vt 0.000000 0.500000
vt 0.250000 0.500000
vt 0.250000 1.000000
vt 0.000000 1.000000
vt 0.750000 0.750000
vt 0.750000 0.500000
vt 0.250000 1.000000
vt 0.000000 1.000000
vt 0.750000 0.750000
vt 0.750000 0.500000
vt 0.250000 1.000000
vt 0.000000 1.000000
vt 0.750000 0.750000
vt 0.750000 0.500000
vt 0.250000 1.000000
vt 0.000000 1.000000
vt 0.750000 0.750000
vt 0.750000 0.500000
vt 0.750000 0.500000
vt 0.000000 1.000000
vt 0.250000 1.000000
vt 0.750000 0.750000
vt 0.250000 1.000000
vt 0.000000 1.000000
vt 0.750000 0.500000
vt 0.500000 0.500000
vt 0.250000 1.000000
vt 0.000000 1.000000
vt 0.750000 0.500000
vt 0.500000 0.500000
vt 0.250000 1.000000
vt 0.000000 1.000000
vt 0.750000 0.500000
vt 0.500000 0.500000
vt 0.250000 1.000000
vt 0.000000 1.000000
vt 0.750000 0.500000
vt 0.500000 0.500000
vt 0.000000 1.000000
vt 0.250000 1.000000
vt 0.750000 0.500000
vt 0.500000 0.500000
vt 0.750000 0.750000
vt 0.750000 0.500000
vt 0.250000 0.500000
vt 0.000000 0.500000
vt 0.750000 0.750000
vt 0.750000 0.500000
vt 0.000000 0.500000
vt 0.250000 0.500000
vt 0.750000 0.750000
vt 0.750000 0.500000
vt 0.000000 0.500000
vt 0.250000 0.500000
vt 0.750000 0.750000
vt 0.750000 0.500000
vt 0.000000 0.500000
vt 0.250000 0.500000
vt 0.750000 0.500000
vt 0.750000 0.750000
vt 0.000000 0.500000
vt 0.250000 0.500000
vt 0.500000 0.750000
vt 0.250000 1.000000
vt 0.000000 1.000000
vt 0.750000 0.750000
vt 0.250000 1.000000
vt 0.750000 0.750000
vt 0.500000 0.750000
vt 0.750000 0.750000
vt 0.500000 0.750000
vt 0.000000 1.000000
vt 0.750000 0.750000
vt 0.500000 0.750000
vt 0.000000 1.000000
vt 0.250000 1.000000
vt 0.750000 0.750000
vt 0.500000 0.750000
vt 0.250000 1.000000
vt 0.000000 1.000000
vt 0.500000 0.500000
vt 0.500000 0.750000
vt 0.250000 1.000000
vt 0.000000 1.000000
vt 0.500000 0.750000
vt 0.500000 0.500000
vt 0.250000 1.000000
vt 0.000000 1.000000
vt 0.500000 0.750000
vt 0.500000 0.500000
vt 0.250000 1.000000
vt 0.000000 1.000000
vt 0.500000 0.750000
vt 0.500000 0.500000
vt 0.000000 1.000000
vt 0.250000 1.000000
vt 0.500000 0.750000
vt 0.500000 0.500000
vt 0.500000 0.750000
vt 0.750000 0.750000
vt 0.250000 0.500000
vt 0.000000 0.500000
vt 0.750000 0.750000
vt 0.500000 0.750000
vt 0.000000 0.500000
vt 0.250000 0.500000
vt 0.750000 0.750000
vt 0.500000 0.750000
vt 0.000000 0.500000
vt 0.250000 0.500000
vt 0.750000 0.750000
vt 0.500000 0.750000
vt 0.000000 0.500000
vt 0.250000 0.500000
vt 0.750000 0.750000
vt 0.500000 0.750000
vt 0.000000 0.500000
vt 0.250000 0.500000
vt 0.750000 0.750000
vt 0.750000 0.500000
vt 0.500000 0.750000
vt 0.500000 0.500000
vt 0.750000 0.750000
vt 0.750000 0.500000
vt 0.500000 0.750000
vt 0.500000 0.500000
vt 0.750000 0.750000
vt 0.750000 0.500000
vt 0.500000 0.750000
vt 0.500000 0.500000
vt 0.750000 0.750000
vt 0.750000 0.500000
vt 0.500000 0.750000
vt 0.500000 0.500000
vt 0.750000 0.500000
vt 0.500000 0.500000
vt 0.750000 0.750000
vt 0.500000 0.750000
vt 0.750000 0.750000
vt 0.750000 0.500000
vt 0.500000 0.750000
vt 0.500000 0.500000
vt 0.750000 0.750000
vt 0.750000 0.500000
vt 0.500000 0.750000
vt 0.500000 0.500000
vt 0.750000 0.750000
vt 0.750000 0.500000
vt 0.500000 0.750000
vt 0.500000 0.500000
vt 0.750000 0.750000
vt 0.750000 0.500000
vt 0.500000 0.750000
vt 0.500000 0.500000
vt 0.750000 0.500000
vt 0.500000 0.500000
vt 0.750000 0.750000
vt 0.500000 0.750000
vt 0.750000 0.750000
vt 0.750000 0.500000
vt 0.500000 0.750000
vt 0.500000 0.500000
vt 0.750000 0.750000
vt 0.750000 0.500000
vt 0.500000 0.750000
vt 0.500000 0.500000
vt 0.750000 0.750000
vt 0.750000 0.500000
vt 0.500000 0.750000
vt 0.500000 0.500000
vt 0.750000 0.750000
vt 0.750000 0.500000
vt 0.500000 0.750000
vt 0.500000 0.500000
vt 0.750000 0.500000
vt 0.500000 0.500000
vt 0.750000 0.750000
vt 0.500000 0.750000
vt 0.750000 0.750000
vt 0.750000 0.500000
vt 0.500000 0.750000
vt 0.500000 0.500000
vt 0.750000 0.750000
vt 0.750000 0.500000
vt 0.500000 0.750000
vt 0.500000 0.500000
vt 0.750000 0.750000
vt 0.750000 0.500000
vt 0.500000 0.750000
vt 0.500000 0.500000
vt 0.750000 0.750000
vt 0.750000 0.500000
vt 0.500000 0.750000
vt 0.500000 0.500000
vt 0.750000 0.500000
vt 0.500000 0.500000
vt 0.750000 0.750000
vt 0.500000 0.750000
vt 0.750000 0.750000
vt 0.750000 0.500000
vt 0.500000 0.750000
vt 0.500000 0.500000
vt 0.750000 0.750000
vt 0.750000 0.500000
vt 0.500000 0.750000
vt 0.500000 0.500000
vt 0.750000 0.750000
vt 0.750000 0.500000
vt 0.500000 0.750000
vt 0.500000 0.500000
vt 0.750000 0.750000
vt 0.750000 0.500000
vt 0.500000 0.750000
vt 0.500000 0.500000
vt 0.500000 0.500000
vt 0.750000 0.500000
vt 0.750000 0.750000
vt 0.500000 0.750000
vt 0.750000 0.750000
vt 0.750000 0.500000
vt 0.500000 0.750000
vt 0.500000 0.500000
vt 0.750000 0.750000
vt 0.750000 0.500000
vt 0.500000 0.750000
vt 0.500000 0.500000
vt 0.750000 0.750000
vt 0.750000 0.500000
vt 0.500000 0.750000
vt 0.500000 0.500000
vt 0.750000 0.750000
vt 0.750000 0.500000
vt 0.500000 0.750000
vt 0.500000 0.500000
vt 0.750000 0.500000
vt 0.500000 0.500000
vt 0.750000 0.750000
vt 0.500000 0.750000
vt 0.750000 0.750000
vt 0.750000 0.500000
vt 0.500000 0.750000
vt 0.500000 0.500000
vt 0.750000 0.750000
vt 0.750000 0.500000
vt 0.500000 0.750000
vt 0.500000 0.500000
vt 0.750000 0.750000
vt 0.750000 0.500000
vt 0.500000 0.750000
vt 0.500000 0.500000
vt 0.750000 0.750000
vt 0.750000 0.500000
vt 0.500000 0.750000
vt 0.500000 0.500000
vt 0.750000 0.500000
vt 0.500000 0.500000
vt 0.750000 0.750000
vt 0.500000 0.750000
vt 0.750000 0.750000
vt 0.750000 0.500000
vt 0.500000 0.750000
vt 0.500000 0.500000
vt 0.750000 0.750000
vt 0.750000 0.500000
vt 0.500000 0.750000
vt 0.500000 0.500000
vt 0.750000 0.750000
vt 0.750000 0.500000
vt 0.500000 0.750000
vt 0.500000 0.500000
vt 0.750000 0.750000
vt 0.750000 0.500000
vt 0.500000 0.750000
vt 0.500000 0.500000
vt 0.750000 0.500000
vt 0.500000 0.500000
vt 0.750000 0.750000
vt 0.500000 0.750000
vt 0.750000 0.750000
vt 0.750000 0.500000
vt 0.500000 0.750000
vt 0.500000 0.500000
vt 0.750000 0.750000
vt 0.750000 0.500000
vt 0.500000 0.750000
vt 0.500000 0.500000
vt 0.750000 0.750000
vt 0.750000 0.500000
vt 0.500000 0.750000
vt 0.500000 0.500000
vt 0.750000 0.750000
vt 0.750000 0.500000
vt 0.500000 0.750000
vt 0.500000 0.500000
vt 0.750000 0.500000
vt 0.500000 0.500000
vt 0.750000 0.750000
vt 0.500000 0.750000
vt 0.750000 0.750000
vt 0.750000 0.500000
vt 0.500000 0.750000
vt 0.500000 0.500000
vt 0.750000 0.750000
vt 0.750000 0.500000
vt 0.500000 0.750000
vt 0.500000 0.500000
vt 0.750000 0.750000
vt 0.750000 0.500000
vt 0.500000 0.750000
vt 0.500000 0.500000
vt 0.750000 0.750000
vt 0.750000 0.500000
vt 0.500000 0.750000
vt 0.500000 0.500000
vt 0.500000 0.500000
vt 0.750000 0.500000
vt 0.750000 0.750000
vt 0.500000 0.750000
vt 0.000000 0.750000
vt 0.250000 0.750000
vt 0.000000 0.750000
vt 0.250000 0.750000
vt 0.000000 0.750000
vt 0.250000 0.750000
vt 0.000000 0.750000
vt 0.250000 0.750000
vt 0.000000 0.750000
vt 0.250000 0.750000
vt 0.000000 0.750000
vt 0.250000 0.750000
vt 0.000000 0.750000
vt 0.250000 0.750000
vt 0.000000 0.750000
vt 0.250000 0.750000
vt 0.250000 0.750000
vt 0.000000 0.750000
vt 0.000000 0.750000
vt 0.250000 0.750000
vt 0.000000 0.750000
vt 0.250000 0.750000
vt 0.000000 0.750000
vt 0.250000 0.750000
vt 0.000000 0.750000
vt 0.250000 0.750000
vt 0.250000 0.750000
vt 0.000000 0.750000
vt 0.000000 0.750000
vt 0.250000 0.750000
vt 0.250000 0.750000
vt 0.000000 0.750000
vt 0.250000 0.750000
vt 0.000000 0.750000
vt 0.000000 0.750000
vt 0.250000 0.750000
vt 0.000000 0.750000
vt 0.250000 0.750000
vt 0.000000 0.750000
vt 0.250000 0.750000
vt 0.000000 0.750000
vt 0.250000 0.750000
vt 0.250000 0.750000
vt 0.000000 0.750000
s 0
f 98/373/1 23/77/1 7/19/1 34/121/1
f 121/420/2 100/380/2 7/20/2 23/78/2
f 116/410/3 102/384/3 5/13/3 38/133/3
f 73/273/4 33/117/4 4/10/4 44/157/4
f 112/404/5 101/382/5 3/7/5 28/97/5
f 107/394/6 99/378/6 1/1/6 43/153/6
f 102/383/6 103/386/6 39/137/6 5/14/6
f 103/385/6 104/388/6 40/141/6 39/138/6
f 104/387/6 105/390/6 41/145/6 40/142/6
f 105/389/6 106/392/6 42/149/6 41/146/6
f 106/391/6 107/393/6 43/154/6 42/150/6
f 99/377/5 108/396/5 24/81/5 1/2/5
f 108/395/5 109/398/5 25/85/5 24/82/5
f 109/397/5 110/400/5 26/89/5 25/86/5
f 110/399/5 111/402/5 27/93/5 26/90/5
f 111/401/5 112/403/5 28/98/5 27/94/5
f 14/41/4 53/193/4 48/173/4 2/4/4
f 53/194/4 58/213/4 47/169/4 48/174/4
f 58/214/4 63/233/4 46/165/4 47/170/4
f 63/234/4 68/253/4 45/161/4 46/166/4
f 68/254/4 73/274/4 44/158/4 45/162/4
f 6/16/4 9/25/4 49/177/4 18/57/4
f 18/58/4 49/178/4 50/181/4 17/53/4
f 17/54/4 50/182/4 51/185/4 16/49/4
f 16/50/4 51/186/4 52/189/4 15/45/4
f 15/46/4 52/190/4 53/195/4 14/42/4
f 9/26/4 10/29/4 54/197/4 49/179/4
f 49/180/4 54/198/4 55/201/4 50/183/4
f 50/184/4 55/202/4 56/205/4 51/187/4
f 51/188/4 56/206/4 57/209/4 52/191/4
f 52/192/4 57/210/4 58/215/4 53/196/4
f 10/30/4 11/32/4 59/217/4 54/199/4
f 54/200/4 59/218/4 60/221/4 55/203/4
f 55/204/4 60/222/4 61/225/4 56/207/4
f 56/208/4 61/226/4 62/229/4 57/211/4
f 57/212/4 62/230/4 63/235/4 58/216/4
f 11/33/4 12/34/4 64/237/4 59/219/4
f 59/220/4 64/238/4 65/241/4 60/223/4
f 60/224/4 65/242/4 66/245/4 61/227/4
f 61/228/4 66/246/4 67/249/4 62/231/4
f 62/232/4 67/250/4 68/255/4 63/236/4
f 12/35/4 13/37/4 69/257/4 64/239/4
f 64/240/4 69/258/4 70/261/4 65/243/4
f 65/244/4 70/262/4 71/265/4 66/247/4
f 66/248/4 71/266/4 72/269/4 67/251/4
f 67/252/4 72/270/4 73/275/4 68/256/4
f 13/38/4 8/22/4 29/101/4 69/259/4
f 69/260/4 29/102/4 30/105/4 70/263/4
f 70/264/4 30/106/4 31/109/4 71/267/4
f 71/268/4 31/110/4 32/113/4 72/271/4
f 72/272/4 32/114/4 33/118/4 73/276/4
f 100/379/3 113/406/3 34/122/3 7/21/3
f 113/405/3 114/407/3 35/125/3 34/123/3
f 115/408/3 116/409/3 38/134/3 37/130/3
f 101/381/2 117/412/2 19/61/2 3/8/2
f 117/411/2 118/414/2 20/65/2 19/62/2
f 118/413/2 119/416/2 21/69/2 20/66/2
f 119/415/2 120/418/2 22/73/2 21/70/2
f 120/417/2 121/419/2 23/79/2 22/74/2
f 39/139/1 78/293/1 38/135/1 5/15/1
f 78/294/1 83/313/1 37/131/1 38/136/1
f 83/314/1 88/333/1 36/128/1 37/132/1
f 88/334/1 93/353/1 35/126/1 36/129/1
f 93/354/1 98/374/1 34/124/1 35/127/1
f 1/3/1 24/83/1 74/277/1 43/155/1
f 43/156/1 74/278/1 75/281/1 42/151/1
f 42/152/1 75/282/1 76/285/1 41/147/1
f 41/148/1 76/286/1 77/289/1 40/143/1
f 40/144/1 77/290/1 78/295/1 39/140/1
f 24/84/1 25/87/1 79/297/1 74/279/1
f 74/280/1 79/298/1 80/301/1 75/283/1
f 75/284/1 80/302/1 81/305/1 76/287/1
f 76/288/1 81/306/1 82/309/1 77/291/1
f 77/292/1 82/310/1 83/315/1 78/296/1
f 25/88/1 26/91/1 84/317/1 79/299/1
f 79/300/1 84/318/1 85/321/1 80/303/1
f 80/304/1 85/322/1 86/325/1 81/307/1
f 81/308/1 86/326/1 87/329/1 82/311/1
f 82/312/1 87/330/1 88/335/1 83/316/1
f 26/92/1 27/95/1 89/337/1 84/319/1
f 84/320/1 89/338/1 90/341/1 85/323/1
f 85/324/1 90/342/1 91/345/1 86/327/1
f 86/328/1 91/346/1 92/349/1 87/331/1
f 87/332/1 92/350/1 93/355/1 88/336/1
f 27/96/1 28/99/1 94/357/1 89/339/1
f 89/340/1 94/358/1 95/361/1 90/343/1
f 90/344/1 95/362/1 96/365/1 91/347/1
f 91/348/1 96/366/1 97/369/1 92/351/1
f 92/352/1 97/370/1 98/375/1 93/356/1
f 28/100/1 3/9/1 19/63/1 94/359/1
f 94/360/1 19/64/1 20/67/1 95/363/1
f 95/364/1 20/68/1 21/71/1 96/367/1
f 96/368/1 21/72/1 22/75/1 97/371/1
f 97/372/1 22/76/1 23/80/1 98/376/1
f 30/107/2 29/103/2 121/419/2 120/417/2
f 31/111/2 30/108/2 120/418/2 119/415/2
f 32/115/2 31/112/2 119/416/2 118/413/2
f 33/119/2 32/116/2 118/414/2 117/411/2
f 4/11/2 33/120/2 117/412/2 101/381/2
f 10/31/3 9/27/3 116/409/3 115/408/3
f 13/39/3 12/36/3 114/407/3 113/405/3
f 8/23/3 13/40/3 113/406/3 100/379/3
f 45/163/5 44/159/5 112/403/5 111/401/5
f 46/167/5 45/164/5 111/402/5 110/399/5
f 47/171/5 46/168/5 110/400/5 109/397/5
f 48/175/5 47/172/5 109/398/5 108/395/5
f 2/5/5 48/176/5 108/396/5 99/377/5
f 15/47/6 14/43/6 107/393/6 106/391/6
f 16/51/6 15/48/6 106/392/6 105/389/6
f 17/55/6 16/52/6 105/390/6 104/387/6
f 18/59/6 17/56/6 104/388/6 103/385/6
f 6/17/6 18/60/6 103/386/6 102/383/6
f 14/44/6 2/6/6 99/378/6 107/394/6
f 44/160/5 4/12/5 101/382/5 112/404/5
f 9/28/3 6/18/3 102/384/3 116/410/3
f 29/104/2 8/24/2 100/380/2 121/420/2
