# Blender 3.3.1
# www.blender.org
mtllib scene1.mtl
o Cube
v 128.000000 256.000000 -128.000000
v 128.000000 0.000000 -128.000000
v 128.000000 256.000000 128.000000
v 128.000000 0.000000 128.000000
v -128.000000 256.000000 -128.000000
v -128.000000 0.000000 -128.000000
v -128.000000 256.000000 128.000000
v -128.000000 0.000000 128.000000
v -64.000000 0.000000 -256.000000
v 64.000000 0.000000 -256.000000
v -128.000000 0.000000 -128.000000
v -128.000000 256.000000 -128.000000
v 128.000000 0.000000 -128.000000
v 128.000000 256.000000 -128.000000
v 44.296078 152.722458 -265.431396
v 64.000000 0.000000 -128.000000
v -44.296078 152.722458 -265.431396
v -64.000000 0.000000 -128.000000
v 47.937622 192.000000 -128.000000
v -47.937622 192.000000 -128.000000
vn -0.0000 -1.0000 -0.0000
vn -0.0000 -0.0000 -1.0000
vn 1.0000 -0.0000 -0.0000
vn -0.0000 1.0000 -0.0000
vn -1.0000 -0.0000 -0.0000
vn -0.0000 0.0616 0.9981
vn 0.9943 -0.1024 0.0288
vn -0.9943 -0.1024 0.0288
vn -0.0000 -0.9615 0.2748
vn -0.0000 -0.0000 1.0000
vt 0.328333 0.338333
vt 0.328333 0.328333
vt 0.328333 0.995000
vt 0.328333 0.005000
vt 0.005000 0.338333
vt 0.661667 0.328333
vt 0.005000 0.328333
vt 0.661667 0.005000
vt 0.005000 0.995000
vt 0.005000 0.005000
vt 0.328333 0.661667
vt 0.338333 0.661667
vt 0.338333 0.338333
vt 0.328333 0.671667
vt 0.005000 0.661667
vt 0.338333 0.328333
vt 0.661667 0.661667
vt 0.338333 0.005000
vt 0.661667 0.338333
vt 0.005000 0.671667
vt 0.495000 0.911667
vt 0.755000 0.495000
vt 0.671667 0.161667
vt 0.338333 0.911667
vt 0.911667 0.495000
vt 0.828333 0.328333
vt 0.338333 0.671667
vt 0.661667 0.671667
vt 0.828333 0.671667
vt 0.745000 0.661667
vt 0.745000 0.338333
vt 0.828333 0.828333
vt 0.911667 0.338333
vt 0.671667 0.328333
vt 0.505000 0.828333
vt 0.338333 0.755000
vt 0.828333 0.171667
vt 0.671667 0.661667
vt 0.755000 0.338333
vt 0.828333 0.161667
vt 0.505000 0.755000
vt 0.495000 0.755000
vt 0.671667 0.005000
vt 0.338333 0.745000
vt 0.671667 0.171667
vt 0.661667 0.828333
vt 0.671667 0.338333
vt 0.671667 0.828333
vt 0.828333 0.005000
vt 0.661667 0.755000
vt 0.661667 0.745000
vt 0.671667 0.671667
s 0
usemtl Plasma
f 1/1/1 3/5/1 7/15/1 5/11/1
f 4/8/2 8/18/2 7/16/2 3/6/2
f 8/19/3 6/13/3 5/12/3 7/17/3
f 6/14/4 8/20/4 4/9/4 2/3/4
f 2/4/5 4/10/5 3/7/5 1/2/5
f 18/42/4 16/36/4 10/24/4 9/21/4
f 15/33/6 17/39/6 9/22/6 10/25/6
f 20/49/7 18/43/7 9/23/7 17/40/7
f 16/37/8 19/45/8 15/34/8 10/26/8
f 19/46/9 20/50/9 17/41/9 15/35/9
f 13/30/10 14/31/10 19/47/10 16/38/10
f 18/44/10 20/51/10 12/28/10 11/27/10
f 12/29/10 20/52/10 19/48/10 14/32/10
o Plane
v 57.314381 0.000000 128.000000
v 128.000000 10.753894 128.000000
v 72.418350 0.000000 73.136459
v 128.000000 0.000000 51.070805
v 72.478500 0.000000 100.052444
v 96.000000 6.833493 128.000000
v 128.000000 6.833493 96.000000
v 100.600342 0.000000 72.624138
v 100.600342 6.833493 100.052444
v 68.600342 0.000000 116.052444
v 112.000000 10.753894 128.000000
v 128.000000 2.857839 80.000000
v 84.600342 0.000000 68.052444
v 68.600342 0.000000 84.052444
v 80.000000 2.857839 128.000000
v 128.000000 10.753894 112.000000
v 116.600342 0.000000 68.052444
v 100.600342 2.857839 84.052444
v 100.600342 6.833493 116.052444
v 84.600342 2.857839 100.052444
v 116.600342 6.833493 100.052444
v 116.600342 10.753894 116.052444
v 84.600342 2.857839 116.052444
v 84.600342 2.857839 84.052444
v 116.600342 2.857839 84.052444
v -129.163849 0.000001 93.696114
v -129.163849 10.753893 129.038925
v -101.732071 0.000001 101.248093
v -90.699249 0.000001 129.038925
v -115.190063 0.000001 101.278168
v -129.163849 6.833493 113.038918
v -113.163849 6.833493 129.038925
v -101.475906 0.000001 115.339088
v -115.190063 6.833493 115.339088
v -123.190063 0.000001 99.339088
v -129.163849 10.753893 121.038918
v -105.163849 2.857840 129.038925
v -99.190063 0.000001 107.339088
v -107.190063 0.000001 99.339088
v -129.163849 2.857840 105.038918
v -121.163849 10.753893 129.038925
v -99.190063 0.000001 123.339088
v -107.190063 2.857840 115.339088
v -123.190063 6.833493 115.339088
v -115.190063 2.857840 107.339088
v -115.190063 6.833493 123.339088
v -123.190063 10.753893 123.339088
v -123.190063 2.857840 107.339088
v -107.190063 2.857840 107.339088
v -107.190063 2.857840 123.339088
v -93.431290 0.000001 -129.755249
v -128.774109 10.753893 -129.755249
v -100.983276 0.000001 -102.323471
v -128.774109 0.000001 -91.290649
v -101.013351 0.000001 -115.781464
v -112.774109 6.833493 -129.755249
v -128.774109 6.833493 -113.755249
v -115.074280 0.000001 -102.067307
v -115.074280 6.833493 -115.781464
v -99.074265 0.000001 -123.781464
v -120.774109 10.753893 -129.755249
v -128.774109 2.857840 -105.755249
v -107.074265 0.000001 -99.781464
v -99.074265 0.000001 -107.781464
v -104.774109 2.857840 -129.755249
v -128.774109 10.753893 -121.755249
v -123.074265 0.000001 -99.781464
v -115.074280 2.857840 -107.781464
v -115.074280 6.833493 -123.781464
v -107.074265 2.857840 -115.781464
v -123.074280 6.833493 -115.781464
v -123.074280 10.753893 -123.781464
v -107.074280 2.857840 -123.781464
v -107.074265 2.857840 -107.781464
v -123.074280 2.857840 -107.781464
v -29.431290 0.000001 -257.755249
v -64.774109 10.753893 -257.755249
v -36.983276 0.000001 -230.323486
v -64.774109 0.000001 -219.290649
v -37.013351 0.000001 -243.781464
v -48.774109 6.833493 -257.755249
v -64.774109 6.833493 -241.755249
v -51.074280 0.000001 -230.067322
v -51.074280 6.833493 -243.781464
v -35.074265 0.000001 -251.781464
v -56.774109 10.753893 -257.755249
v -64.774109 2.857840 -233.755249
v -43.074265 0.000001 -227.781464
v -35.074265 0.000001 -235.781464
v -40.774109 2.857840 -257.755249
v -64.774109 10.753893 -249.755249
v -59.074265 0.000001 -227.781464
v -51.074280 2.857840 -235.781464
v -51.074280 6.833493 -251.781464
v -43.074265 2.857840 -243.781464
v -59.074280 6.833493 -243.781464
v -59.074280 10.753893 -251.781464
v -43.074280 2.857840 -251.781464
v -43.074265 2.857840 -235.781464
v -59.074280 2.857840 -235.781464
vn -0.1156 0.9853 -0.1254
vn 0.0291 0.9786 -0.2039
vn -0.2411 0.9705 -0.0000
vn -0.0843 0.9678 -0.2371
vn -0.1207 0.9853 -0.1207
vn -0.2370 0.9672 -0.0913
vn -0.0000 1.0000 -0.0000
vn -0.1991 0.9797 -0.0241
vn -0.1455 0.9846 -0.0967
vn -0.2401 0.9663 -0.0925
vn -0.0732 0.9818 -0.1754
vn -0.1991 0.9797 0.0241
vn -0.1224 0.9849 -0.1224
vn -0.0291 0.9786 -0.2039
vn -0.0000 0.9705 -0.2411
vn -0.0854 0.9669 -0.2403
vn -0.1755 0.9826 -0.0614
vn 0.2404 0.9450 -0.2218
vn 0.3841 0.9217 0.0549
vn -0.0000 0.8955 -0.4450
vn 0.4348 0.8872 -0.1546
vn 0.2315 0.9449 -0.2315
vn 0.1671 0.8854 -0.4339
vn 0.0456 0.9254 -0.3762
vn 0.1851 0.9424 -0.2785
vn 0.1689 0.8826 -0.4386
vn 0.3331 0.9326 -0.1390
vn -0.0456 0.9254 -0.3762
vn 0.2344 0.9434 -0.2344
vn 0.3841 0.9217 -0.0549
vn 0.4450 0.8955 -0.0000
vn 0.4396 0.8845 -0.1563
vn 0.1169 0.9353 -0.3341
vn 0.2218 0.9450 0.2404
vn -0.0549 0.9217 0.3841
vn 0.1546 0.8872 0.4348
vn 0.2315 0.9449 0.2315
vn 0.4339 0.8854 0.1671
vn 0.3762 0.9254 0.0456
vn 0.2785 0.9424 0.1851
vn 0.4386 0.8826 0.1689
vn 0.1390 0.9326 0.3331
vn 0.3762 0.9254 -0.0456
vn 0.2344 0.9434 0.2344
vn 0.0549 0.9217 0.3841
vn -0.0000 0.8955 0.4450
vn 0.1563 0.8845 0.4396
vn 0.3341 0.9353 0.1169
vt 0.911667 0.005000
vt 0.755000 0.505000
vt 0.843333 0.161667
vt 0.906667 0.088333
vt 0.671667 0.911667
vt 0.828333 0.661667
vt 0.911667 0.255000
vt 0.995000 0.005000
vt 0.838333 0.171667
vt 0.838333 0.828333
vt 0.838333 0.588333
vt 0.838333 0.745000
vt 0.578333 0.911667
vt 0.755000 0.911667
vt 0.911667 0.911667
vt 0.838333 0.505000
vt 0.661667 0.838333
vt 0.828333 0.588333
vt 0.911667 0.078333
vt 0.921667 0.005000
vt 0.828333 0.505000
vt 0.671667 0.838333
vt 0.838333 0.661667
vt 0.911667 0.745000
vt 0.911667 0.161667
vt 0.911667 0.328333
vt 0.838333 0.088333
vt 0.838333 0.005000
vt 0.911667 0.171667
vt 0.838333 0.755000
vt 0.755000 0.578333
vt 0.745000 0.911667
vt 0.505000 0.911667
vt 0.838333 0.671667
vt 0.838333 0.578333
vt 0.578333 0.838333
vt 0.661667 0.911667
vt 0.755000 0.838333
vt 0.911667 0.838333
vt 0.995000 0.078333
vt 0.838333 0.245000
vt 0.828333 0.911667
vt 0.755000 0.661667
vt 0.838333 0.255000
vt 0.911667 0.505000
vt 0.911667 0.828333
vt 0.838333 0.911667
vt 0.588333 0.838333
vt 0.911667 0.588333
vt 0.911667 0.755000
vt 0.838333 0.838333
vt 0.921667 0.078333
vt 0.828333 0.578333
vt 0.828333 0.838333
vt 0.755000 0.588333
vt 0.838333 0.078333
vt 0.911667 0.245000
vt 0.911667 0.671667
vt 0.911667 0.093333
vt 0.838333 0.328333
vt 0.911667 0.578333
vt 0.838333 0.156667
vt 0.745000 0.838333
vt 0.505000 0.838333
vt 0.588333 0.911667
vt 0.911667 0.661667
vt 0.953333 0.796667
vt 0.755000 0.921667
vt 0.593333 0.953333
vt 0.615000 0.921667
vt 0.921667 0.661667
vt 0.953333 0.786667
vt 0.870000 0.921667
vt 0.745000 0.921667
vt 0.796667 0.921667
vt 0.921667 0.703333
vt 0.921667 0.921667
vt 0.630000 0.953333
vt 0.953333 0.911667
vt 0.671667 0.953333
vt 0.953333 0.745000
vt 0.921667 0.838333
vt 0.911667 0.921667
vt 0.953333 0.755000
vt 0.953333 0.828333
vt 0.713333 0.921667
vt 0.786667 0.921667
vt 0.921667 0.630000
vt 0.921667 0.953333
vt 0.661667 0.953333
vt 0.620000 0.953333
vt 0.870000 0.953333
vt 0.588333 0.921667
vt 0.921667 0.796667
vt 0.828333 0.921667
vt 0.921667 0.671667
vt 0.755000 0.953333
vt 0.953333 0.661667
vt 0.921667 0.911667
vt 0.630000 0.921667
vt 0.921667 0.870000
vt 0.953333 0.880000
vt 0.911667 0.953333
vt 0.671667 0.921667
vt 0.953333 0.713333
vt 0.745000 0.953333
vt 0.796667 0.953333
vt 0.703333 0.953333
vt 0.921667 0.786667
vt 0.838333 0.921667
vt 0.953333 0.838333
vt 0.953333 0.703333
vt 0.921667 0.745000
vt 0.880000 0.921667
vt 0.953333 0.921667
vt 0.953333 0.671667
vt 0.921667 0.713333
vt 0.713333 0.953333
vt 0.786667 0.953333
vt 0.703333 0.921667
vt 0.921667 0.755000
vt 0.921667 0.828333
vt 0.828333 0.953333
vt 0.661667 0.921667
vt 0.620000 0.926667
vt 0.838333 0.953333
vt 0.953333 0.870000
vt 0.588333 0.948333
vt 0.953333 0.630000
vt 0.921667 0.880000
vt 0.880000 0.953333
vt 0.953333 0.953333
vt 0.411667 0.963333
vt 0.963333 0.338333
vt 0.926667 0.578333
vt 0.551667 0.953333
vt 0.963333 0.120000
vt 0.370000 0.995000
vt 0.995000 0.421667
vt 0.995000 0.296667
vt 0.963333 0.380000
vt 0.963333 0.245000
vt 0.921667 0.130000
vt 0.963333 0.161667
vt 0.495000 0.995000
vt 0.963333 0.203333
vt 0.995000 0.286667
vt 0.421667 0.963333
vt 0.953333 0.088333
vt 0.370000 0.963333
vt 0.411667 0.995000
vt 0.963333 0.296667
vt 0.995000 0.338333
vt 0.963333 0.088333
vt 0.921667 0.161667
vt 0.995000 0.161667
vt 0.953333 0.578333
vt 0.995000 0.453333
vt 0.578333 0.953333
vt 0.380000 0.963333
vt 0.995000 0.380000
vt 0.963333 0.213333
vt 0.963333 0.370000
vt 0.995000 0.120000
vt 0.463333 0.995000
vt 0.963333 0.130000
vt 0.421667 0.995000
vt 0.495000 0.963333
vt 0.953333 0.120000
vt 0.963333 0.171667
vt 0.995000 0.255000
vt 0.995000 0.328333
vt 0.963333 0.411667
vt 0.995000 0.203333
vt 0.338333 0.995000
vt 0.963333 0.421667
vt 0.453333 0.963333
vt 0.995000 0.245000
vt 0.963333 0.286667
vt 0.921667 0.088333
vt 0.953333 0.130000
vt 0.995000 0.213333
vt 0.963333 0.255000
vt 0.963333 0.328333
vt 0.995000 0.370000
vt 0.995000 0.171667
vt 0.338333 0.963333
vt 0.380000 0.995000
vt 0.995000 0.411667
vt 0.995000 0.130000
vt 0.953333 0.551667
vt 0.963333 0.453333
vt 0.453333 0.995000
vt 0.578333 0.926667
vt 0.995000 0.088333
vt 0.463333 0.963333
vt 0.921667 0.120000
vt 0.953333 0.161667
vt 0.453333 0.921667
vt 0.921667 0.380000
vt 0.948333 0.546667
vt 0.573333 0.921667
vt 0.921667 0.203333
vt 0.411667 0.953333
vt 0.953333 0.421667
vt 0.953333 0.338333
vt 0.921667 0.588333
vt 0.921667 0.328333
vt 0.505000 0.921667
vt 0.921667 0.245000
vt 0.495000 0.953333
vt 0.921667 0.286667
vt 0.370000 0.953333
vt 0.921667 0.463333
vt 0.953333 0.505000
vt 0.411667 0.921667
vt 0.453333 0.953333
vt 0.921667 0.338333
vt 0.953333 0.380000
vt 0.921667 0.171667
vt 0.505000 0.953333
vt 0.953333 0.245000
vt 0.921667 0.546667
vt 0.953333 0.453333
vt 0.546667 0.921667
vt 0.421667 0.921667
vt 0.953333 0.588333
vt 0.921667 0.296667
vt 0.921667 0.411667
vt 0.953333 0.203333
vt 0.463333 0.953333
vt 0.921667 0.213333
vt 0.921667 0.495000
vt 0.495000 0.921667
vt 0.953333 0.536667
vt 0.921667 0.255000
vt 0.370000 0.921667
vt 0.953333 0.370000
vt 0.921667 0.620000
vt 0.953333 0.286667
vt 0.380000 0.953333
vt 0.921667 0.421667
vt 0.953333 0.463333
vt 0.953333 0.328333
vt 0.338333 0.953333
vt 0.921667 0.505000
vt 0.536667 0.921667
vt 0.953333 0.296667
vt 0.338333 0.921667
vt 0.921667 0.370000
vt 0.953333 0.411667
vt 0.953333 0.255000
vt 0.380000 0.921667
vt 0.421667 0.953333
vt 0.953333 0.620000
vt 0.953333 0.213333
vt 0.921667 0.573333
vt 0.921667 0.453333
vt 0.953333 0.495000
vt 0.546667 0.948333
vt 0.953333 0.171667
vt 0.463333 0.921667
vt 0.921667 0.536667
vt 0.536667 0.953333
s 0
usemtl Plasma
f 45/115/11 32/74/11 24/57/11 37/84/11
f 44/110/12 38/86/12 28/64/12 33/76/12
f 43/106/13 39/90/13 29/66/13 40/94/13
f 42/102/14 36/82/14 27/62/14 41/98/14
f 39/91/15 42/103/15 41/99/15 29/67/15
f 26/60/16 31/72/16 42/104/16 39/92/16
f 31/73/17 22/54/17 36/83/17 42/105/17
f 30/70/18 43/107/18 40/95/18 25/58/18
f 21/53/19 35/80/19 43/108/19 30/71/19
f 35/81/20 26/61/20 39/93/20 43/109/20
f 44/111/21 33/77/21 23/55/21
f 25/59/22 40/96/22 44/112/22 34/78/22
f 40/97/23 29/68/23 38/87/23 44/113/23
f 38/88/24 45/116/24 37/85/24 28/65/24
f 29/69/25 41/100/25 45/117/25 38/89/25
f 41/101/26 27/63/26 32/75/26 45/118/26
f 34/79/27 44/114/27 23/56/27
f 70/181/28 57/140/28 49/123/28 62/150/28
f 69/176/29 63/152/29 53/130/29 58/142/29
f 68/172/30 64/156/30 54/132/30 65/160/30
f 67/168/31 61/148/31 52/128/31 66/164/31
f 64/157/32 67/169/32 66/165/32 54/133/32
f 51/126/33 56/138/33 67/170/33 64/158/33
f 56/139/17 47/120/17 61/149/17 67/171/17
f 55/136/34 68/173/34 65/161/34 50/124/34
f 46/119/35 60/146/35 68/174/35 55/137/35
f 60/147/36 51/127/36 64/159/36 68/175/36
f 69/177/37 58/143/37 48/121/37
f 50/125/38 65/162/38 69/178/38 59/144/38
f 65/163/39 54/134/39 63/153/39 69/179/39
f 63/154/40 70/182/40 62/151/40 53/131/40
f 54/135/41 66/166/41 70/183/41 63/155/41
f 66/167/42 52/129/42 57/141/42 70/184/42
f 59/145/43 69/180/43 48/122/43
f 95/247/44 82/206/44 74/189/44 87/216/44
f 94/242/45 88/218/45 78/196/45 83/208/45
f 93/238/41 89/222/41 79/198/41 90/226/41
f 92/234/46 86/214/46 77/194/46 91/230/46
f 89/223/47 92/235/47 91/231/47 79/199/47
f 76/192/48 81/204/48 92/236/48 89/224/48
f 81/205/17 72/186/17 86/215/17 92/237/17
f 80/202/49 93/239/49 90/227/49 75/190/49
f 71/185/50 85/212/50 93/240/50 80/203/50
f 85/213/51 76/193/51 89/225/51 93/241/51
f 94/243/52 83/209/52 73/187/52
f 75/191/53 90/228/53 94/244/53 84/210/53
f 90/229/54 79/200/54 88/219/54 94/245/54
f 88/220/55 95/248/55 87/217/55 78/197/55
f 79/201/56 91/232/56 95/249/56 88/221/56
f 91/233/57 77/195/57 82/207/57 95/250/57
f 84/211/58 94/246/58 73/188/58
f 120/313/44 107/272/44 99/255/44 112/282/44
f 119/308/45 113/284/45 103/262/45 108/274/45
f 118/304/41 114/288/41 104/264/41 115/292/41
f 117/300/46 111/280/46 102/260/46 116/296/46
f 114/289/47 117/301/47 116/297/47 104/265/47
f 101/258/48 106/270/48 117/302/48 114/290/48
f 106/271/17 97/252/17 111/281/17 117/303/17
f 105/268/49 118/305/49 115/293/49 100/256/49
f 96/251/50 110/278/50 118/306/50 105/269/50
f 110/279/51 101/259/51 114/291/51 118/307/51
f 119/309/52 108/275/52 98/253/52
f 100/257/53 115/294/53 119/310/53 109/276/53
f 115/295/54 104/266/54 113/285/54 119/311/54
f 113/286/55 120/314/55 112/283/55 103/263/55
f 104/267/56 116/298/56 120/315/56 113/287/56
f 116/299/57 102/261/57 107/273/57 120/316/57
f 109/277/58 119/312/58 98/254/58
