# Blender 3.3.1
# www.blender.org
o Cube.016
v 75.465973 15.758387 -129.542877
v 75.465973 40.211906 -137.118210
v 75.465973 14.811470 -132.599564
v 75.465973 39.264992 -140.174896
v 78.665970 15.758387 -129.542877
v 78.665970 40.211906 -137.118210
v 78.665970 14.811470 -132.599564
v 78.665970 39.264992 -140.174896
vn -1.0000 -0.0000 -0.0000
vn -0.0000 -0.2959 -0.9552
vn 1.0000 -0.0000 -0.0000
vn -0.0000 0.2959 0.9552
vn -0.0000 -0.9552 0.2959
vn -0.0000 0.9552 -0.2959
vt 0.757812 0.101562
vt 0.757812 0.105469
vt 0.757812 0.242188
vt 0.757812 0.101562
vt 0.757812 0.105469
vt 0.757812 0.242188
vt 0.757812 0.101562
vt 0.757812 0.105469
vt 0.757812 0.242188
vt 0.757812 0.101562
vt 0.757812 0.105469
vt 0.757812 0.242188
s 0
f 1/1/1 2/3/1 4/6/1 3/4/1
f 3/4/2 4/6/2 8/12/2 7/10/2
f 7/10/3 8/12/3 6/9/3 5/7/3
f 5/7/4 6/9/4 2/3/4 1/1/4
f 3/5/5 7/11/5 5/8/5 1/2/5
f 8/12/6 4/6/6 2/3/6 6/9/6
o Cube.017
v -78.639313 15.758387 -129.542877
v -78.639313 40.211906 -137.118210
v -78.639313 14.811470 -132.599564
v -78.639313 39.264992 -140.174896
v -75.439316 15.758387 -129.542877
v -75.439316 40.211906 -137.118210
v -75.439316 14.811470 -132.599564
v -75.439316 39.264992 -140.174896
vn -1.0000 -0.0000 -0.0000
vn -0.0000 -0.2959 -0.9552
vn 1.0000 -0.0000 -0.0000
vn -0.0000 0.2959 0.9552
vn -0.0000 -0.9552 0.2959
vn -0.0000 0.9552 -0.2959
vt 0.757812 0.101562
vt 0.757812 0.105469
vt 0.757812 0.242188
vt 0.757812 0.101562
vt 0.757812 0.105469
vt 0.757812 0.242188
vt 0.757812 0.101562
vt 0.757812 0.105469
vt 0.757812 0.242188
vt 0.757812 0.101562
vt 0.757812 0.105469
vt 0.757812 0.242188
s 0
f 9/13/7 10/15/7 12/18/7 11/16/7
f 11/16/8 12/18/8 16/24/8 15/22/8
f 15/22/9 16/24/9 14/21/9 13/19/9
f 13/19/10 14/21/10 10/15/10 9/13/10
f 11/17/11 15/23/11 13/20/11 9/14/11
f 16/24/12 12/18/12 10/15/12 14/21/12
