# Blender 3.3.1
# www.blender.org
o Cube.014
v -257.600006 55.924461 60.491386
v -257.600006 80.377983 52.916050
v -257.600006 54.977547 57.434696
v -257.600006 79.431068 49.859360
v -254.399994 55.924461 60.491386
v -254.399994 80.377983 52.916050
v -254.399994 54.977547 57.434696
v -254.399994 79.431068 49.859360
vn -1.0000 -0.0000 -0.0000
vn -0.0000 -0.2959 -0.9552
vn 1.0000 -0.0000 -0.0000
vn -0.0000 0.2959 0.9552
vn -0.0000 -0.9552 0.2959
vn -0.0000 0.9552 -0.2959
vt 0.757812 0.101562
vt 0.757812 0.105469
vt 0.757812 0.242188
vt 0.757812 0.101562
vt 0.757812 0.105469
vt 0.757812 0.242188
vt 0.757812 0.101562
vt 0.757812 0.105469
vt 0.757812 0.242188
vt 0.757812 0.101562
vt 0.757812 0.105469
vt 0.757812 0.242188
s 0
f 1/1/1 2/3/1 4/6/1 3/4/1
f 3/4/2 4/6/2 8/12/2 7/10/2
f 7/10/3 8/12/3 6/9/3 5/7/3
f 5/7/4 6/9/4 2/3/4 1/1/4
f 3/5/5 7/11/5 5/8/5 1/2/5
f 8/12/6 4/6/6 2/3/6 6/9/6
