# Blender 3.3.1
# www.blender.org
mtllib water1.mtl
o water1
v -44.941940 -73.562408 37.656731
v -41.430477 -9.562412 32.000000
v -44.435928 -73.562408 -31.999998
v -41.430477 -9.562412 -31.999998
v 44.941940 -73.562408 37.656731
v 41.430477 -9.562412 32.000000
v 44.435928 -73.562408 -31.999998
v 41.430477 -9.562412 -31.999998
v -41.430477 -73.562408 0.000000
v -41.430477 -33.470242 32.000000
v -41.430477 -9.562412 0.000000
v -41.430477 -41.562412 -31.999998
v 0.000000 -73.562408 -31.999998
v 0.000000 -9.562412 -31.999998
v 41.430477 -41.562412 -31.999998
v 41.430477 -73.562408 0.000000
v 41.430477 -9.562412 0.000000
v 41.430477 -33.470242 32.000000
v 0.000000 -73.562408 37.656731
v 0.000000 -9.562412 32.000000
v 0.000000 -9.562412 0.000000
v 0.000000 -33.470242 32.000000
v 41.430477 -41.562412 0.000000
v 0.000000 -41.562412 -31.999998
v -41.430477 -41.562412 0.000000
v -41.430477 -73.562408 16.000000
v -41.430477 -17.470242 32.000000
v -41.430477 -9.562412 -16.000000
v -44.435928 -57.562412 -31.999998
v -20.715239 -73.562408 -44.514732
v 20.715239 -9.562412 -31.999998
v 44.435928 -57.562412 -31.999998
v 41.430477 -73.562408 -16.000000
v 41.430477 -9.562412 16.000000
v 44.941940 -49.470242 37.656731
v 20.715239 -73.562408 32.000000
v -20.715239 -9.562412 32.000000
v -41.430477 -73.562408 -16.000000
v -44.941940 -49.470242 37.656731
v -41.430477 -9.562412 16.000000
v -41.430477 -25.562412 -31.999998
v 20.715239 -73.562408 -44.514732
v -20.715239 -9.562412 -31.999998
v 41.430477 -25.562412 -31.999998
v 41.430477 -73.562408 16.000000
v 41.430477 -9.562412 -16.000000
v 41.430477 -17.470242 32.000000
v -20.715239 -73.562408 32.000000
v 20.715239 -9.562412 32.000000
v 0.000000 -9.562412 16.000000
v 0.000000 -9.562412 -16.000000
v 20.715239 -9.562412 0.000000
v -20.715239 -9.562412 0.000000
v -20.715239 -41.562412 32.000000
v 20.715239 -41.562412 32.000000
v 0.000000 -49.470242 37.656731
v 0.000000 -17.470242 32.000000
v 41.430477 -41.562412 16.000000
v 41.430477 -41.562412 -16.000000
v 41.430477 -57.562412 0.000000
v 41.430477 -25.562412 0.000000
v 20.715239 -33.470242 -31.999998
v -20.715239 -33.470242 -31.999998
v 0.000000 -57.562412 -31.999998
v 0.000000 -17.470242 -31.999998
v -41.430477 -41.562412 -16.000000
v -41.430477 -41.562412 16.000000
v -41.430477 -57.562412 0.000000
v -41.430477 -25.562412 0.000000
v -41.430477 -25.562412 16.000000
v -41.430477 -57.562412 16.000000
v -41.430477 -57.562412 -16.000000
v -20.715239 -17.470242 -31.999998
v -20.715239 -49.470242 -44.514732
v 20.715239 -49.470242 -44.514732
v 41.430477 -25.562412 -16.000000
v 41.430477 -57.562412 -16.000000
v 41.430477 -57.562412 16.000000
v 20.715239 -25.562412 32.000000
v 20.715239 -57.562412 32.000000
v -20.715239 -57.562412 32.000000
v -20.715239 -9.562412 -16.000000
v 20.715239 -9.562412 -16.000000
v -20.715239 -9.562412 16.000000
v 20.715239 -9.562412 16.000000
v -20.715239 -25.562412 32.000000
v 41.430477 -25.562412 16.000000
v 20.715239 -17.470242 -31.999998
v -41.430477 -25.562412 -16.000000
vn -1.0000 -0.0000 -0.0000
vn -0.6464 0.7630 -0.0000
vn -0.5139 0.6066 -0.6066
vn -0.6464 -0.0000 -0.7630
vn -0.0000 -0.0000 -1.0000
vn -0.0000 0.7071 -0.7071
vn 0.5139 0.6066 -0.6066
vn 0.6464 -0.0000 -0.7630
vn 1.0000 -0.0000 -0.0000
vn 0.6464 0.7630 -0.0000
vn 0.5139 0.6066 0.6066
vn 0.6464 -0.0000 0.7630
vn -0.0000 -0.0000 1.0000
vn -0.0000 0.7071 0.7071
vn -0.5139 0.6066 0.6066
vn -0.6464 -0.0000 0.7630
vn -0.0000 1.0000 -0.0000
vn -0.0158 0.0627 0.9979
vn -0.0067 0.1042 0.9945
vn -0.6513 0.0741 0.7552
vn -0.5840 0.1207 0.8028
vn 0.0158 0.0627 0.9979
vn 0.0067 0.1042 0.9945
vn -0.0000 0.0631 0.9980
vn -0.0000 0.1086 0.9941
vn 0.9971 0.0167 -0.0744
vn 0.9987 0.0279 -0.0420
vn 0.6513 0.0741 0.7552
vn 0.5840 0.1207 0.8028
vn 0.9973 0.0234 0.0698
vn 0.9995 0.0234 0.0234
vn -0.0130 0.2217 -0.9750
vn -0.0030 0.1381 -0.9904
vn 0.7595 0.1984 -0.6195
vn 0.8670 0.1164 -0.4845
vn 0.0130 0.2217 -0.9750
vn 0.0030 0.1381 -0.9904
vn -0.0000 0.2264 -0.9740
vn -0.0000 0.1512 -0.9885
vn -0.9973 0.0234 0.0698
vn -0.9995 0.0234 0.0234
vn -0.7595 0.1984 -0.6195
vn -0.8670 0.1164 -0.4845
vn -0.9971 0.0167 -0.0744
vn -0.9987 0.0279 -0.0420
vn -0.9968 -0.0000 -0.0804
vn -0.5958 -0.0000 0.8031
vn -0.9957 -0.0000 0.0929
vn -0.8805 -0.0000 -0.4741
vn 0.0265 -0.0000 -0.9996
vn -0.0265 -0.0000 -0.9996
vn 0.8805 -0.0000 -0.4741
vn 0.9957 -0.0000 0.0929
vn 0.9968 -0.0000 -0.0804
vn 0.5958 -0.0000 0.8031
vn 0.0182 -0.0000 0.9998
vn -0.0182 -0.0000 0.9998
vt 0.394483 0.339634
vt 0.394483 0.343897
vt 0.271466 0.343897
vt 0.220796 0.341823
vt 0.271466 0.339634
vt 0.394483 0.343897
vt 0.216642 0.341823
vt 0.271466 0.343897
vt 0.159211 0.341823
vt 0.155057 0.341823
vt 0.394483 0.343897
vt 0.394483 0.339634
vt 0.271466 0.343897
vt 0.271466 0.339634
vt 0.220796 0.350499
vt 0.216642 0.350499
vt 0.394483 0.339634
vt 0.159211 0.350499
vt 0.271466 0.339634
vt 0.155057 0.350499
vt 0.394483 0.341766
vt 0.332974 0.339634
vt 0.332974 0.343897
vt 0.187926 0.341823
vt 0.271466 0.341766
vt 0.187926 0.341823
vt 0.332974 0.343897
vt 0.216642 0.346161
vt 0.155057 0.346161
vt 0.159211 0.346161
vt 0.332974 0.339634
vt 0.187926 0.350499
vt 0.394483 0.341766
vt 0.187926 0.350499
vt 0.271466 0.341766
vt 0.332974 0.339634
vt 0.332974 0.343897
vt 0.394483 0.341766
vt 0.220796 0.346161
vt 0.271466 0.341766
vt 0.187926 0.346161
vt 0.332974 0.341766
vt 0.332974 0.341766
vt 0.187926 0.346161
vt 0.332974 0.341766
vt 0.394483 0.340700
vt 0.302220 0.339634
vt 0.302220 0.343897
vt 0.171492 0.341823
vt 0.271466 0.342831
vt 0.363729 0.343897
vt 0.202284 0.341823
vt 0.216642 0.343992
vt 0.155057 0.348330
vt 0.159211 0.348330
vt 0.202284 0.350499
vt 0.363729 0.339634
vt 0.394483 0.340700
vt 0.204361 0.350499
vt 0.271466 0.342831
vt 0.363729 0.343897
vt 0.363729 0.339634
vt 0.394483 0.340700
vt 0.220796 0.343992
vt 0.271466 0.342831
vt 0.394483 0.342831
vt 0.363729 0.339634
vt 0.363729 0.343897
vt 0.271466 0.340700
vt 0.204361 0.341823
vt 0.173568 0.341823
vt 0.302220 0.343897
vt 0.216642 0.348330
vt 0.159211 0.343992
vt 0.155057 0.343992
vt 0.302220 0.339634
vt 0.173568 0.350499
vt 0.394483 0.342831
vt 0.271466 0.340700
vt 0.171492 0.350499
vt 0.302220 0.339634
vt 0.302220 0.343897
vt 0.394483 0.342831
vt 0.271466 0.340700
vt 0.220796 0.348330
vt 0.204361 0.346161
vt 0.171492 0.346161
vt 0.187926 0.348330
vt 0.187926 0.343992
vt 0.332974 0.342831
vt 0.332974 0.340700
vt 0.363729 0.341766
vt 0.302220 0.341766
vt 0.332974 0.342831
vt 0.332974 0.340700
vt 0.363729 0.341766
vt 0.302220 0.341766
vt 0.187926 0.348330
vt 0.187926 0.343992
vt 0.202284 0.346161
vt 0.173568 0.346161
vt 0.332974 0.342831
vt 0.332974 0.340700
vt 0.363729 0.341766
vt 0.302220 0.341766
vt 0.302220 0.340700
vt 0.363729 0.340700
vt 0.363729 0.342831
vt 0.173568 0.343992
vt 0.202284 0.343992
vt 0.202284 0.348330
vt 0.302220 0.340700
vt 0.363729 0.340700
vt 0.363729 0.342831
vt 0.302220 0.340700
vt 0.363729 0.340700
vt 0.363729 0.342831
vt 0.171492 0.343992
vt 0.171492 0.348330
vt 0.204361 0.343992
vt 0.204361 0.348330
vt 0.302220 0.342831
vt 0.302220 0.342831
vt 0.173568 0.348330
vt 0.302220 0.342831
s 1
usemtl Material.001
f 89/125/1 28/50/2 4/8/3 41/72/4
f 88/124/5 31/55/6 8/18/7 44/77/8
f 87/123/9 34/60/10 6/13/11 47/82/12
f 86/122/13 37/65/14 2/3/15 27/48/16
f 85/121/17 50/86/17 20/39/14 49/85/14
f 84/120/17 40/70/2 2/4/15 37/64/14
f 83/119/17 51/87/17 21/41/17 52/88/17
f 82/118/17 28/49/2 11/24/2 53/89/17
f 81/117/18 54/90/19 10/23/20 39/68/21
f 80/116/22 55/91/23 22/42/24 56/92/25
f 79/115/13 49/84/14 20/40/14 57/93/13
f 78/114/26 58/94/27 18/37/28 35/61/29
f 77/113/30 59/95/31 23/43/9 60/96/9
f 76/112/9 46/79/10 17/35/10 61/97/9
f 75/111/32 62/98/33 15/32/34 32/56/35
f 74/110/36 63/99/37 24/44/38 64/100/39
f 73/109/5 43/74/6 14/30/6 65/101/5
f 72/108/40 66/102/41 12/27/42 29/51/43
f 71/107/44 67/103/45 25/45/1 68/104/1
f 70/106/1 40/69/2 11/25/2 69/105/1
f 67/103/45 70/106/1 69/105/1 25/45/1
f 10/22/20 27/47/16 70/106/1 67/103/45
f 27/47/16 2/5/15 40/69/2 70/106/1
f 26/46/46 71/107/44 68/104/1 9/21/1
f 1/1/47 39/67/21 71/107/44 26/46/46
f 39/67/21 10/22/20 67/103/45 71/107/44
f 38/66/48 72/108/40 29/51/43 3/6/49
f 9/21/1 68/104/1 72/108/40 38/66/48
f 68/104/1 25/45/1 66/102/41 72/108/40
f 63/99/37 73/109/5 65/101/5 24/44/38
f 12/26/42 41/71/4 73/109/5 63/99/37
f 41/71/4 4/9/3 43/74/6 73/109/5
f 30/53/50 74/110/36 64/100/39 13/28/5
f 3/7/49 29/52/43 74/110/36 30/53/50
f 29/52/43 12/26/42 63/99/37 74/110/36
f 42/73/51 75/111/32 32/56/35 7/16/52
f 13/28/5 64/100/39 75/111/32 42/73/51
f 64/100/39 24/44/38 62/98/33 75/111/32
f 59/95/31 76/112/9 61/97/9 23/43/9
f 15/31/34 44/76/8 76/112/9 59/95/31
f 44/76/8 8/19/7 46/79/10 76/112/9
f 33/58/53 77/113/30 60/96/9 16/33/9
f 7/17/52 32/57/35 77/113/30 33/58/53
f 32/57/35 15/31/34 59/95/31 77/113/30
f 45/78/54 78/114/26 35/61/29 5/11/55
f 16/33/9 60/96/9 78/114/26 45/78/54
f 60/96/9 23/43/9 58/94/27 78/114/26
f 55/91/23 79/115/13 57/93/13 22/42/24
f 18/36/28 47/81/12 79/115/13 55/91/23
f 47/81/12 6/14/11 49/84/14 79/115/13
f 36/63/56 80/116/22 56/92/25 19/38/13
f 5/12/55 35/62/29 80/116/22 36/63/56
f 35/62/29 18/36/28 55/91/23 80/116/22
f 48/83/57 81/117/18 39/68/21 1/2/47
f 19/38/13 56/92/25 81/117/18 48/83/57
f 56/92/25 22/42/24 54/90/19 81/117/18
f 51/87/17 82/118/17 53/89/17 21/41/17
f 14/29/6 43/75/6 82/118/17 51/87/17
f 43/75/6 4/10/3 28/49/2 82/118/17
f 46/80/10 83/119/17 52/88/17 17/34/10
f 8/20/7 31/54/6 83/119/17 46/80/10
f 31/54/6 14/29/6 51/87/17 83/119/17
f 50/86/17 84/120/17 37/64/14 20/39/14
f 21/41/17 53/89/17 84/120/17 50/86/17
f 53/89/17 11/24/2 40/70/2 84/120/17
f 34/59/10 85/121/17 49/85/14 6/15/11
f 17/34/10 52/88/17 85/121/17 34/59/10
f 52/88/17 21/41/17 50/86/17 85/121/17
f 54/90/19 86/122/13 27/48/16 10/23/20
f 22/42/24 57/93/13 86/122/13 54/90/19
f 57/93/13 20/40/14 37/65/14 86/122/13
f 58/94/27 87/123/9 47/82/12 18/37/28
f 23/43/9 61/97/9 87/123/9 58/94/27
f 61/97/9 17/35/10 34/60/10 87/123/9
f 62/98/33 88/124/5 44/77/8 15/32/34
f 24/44/38 65/101/5 88/124/5 62/98/33
f 65/101/5 14/30/6 31/55/6 88/124/5
f 66/102/41 89/125/1 41/72/4 12/27/42
f 25/45/1 69/105/1 89/125/1 66/102/41
f 69/105/1 11/25/2 28/50/2 89/125/1
